# xmcd
#
# Track frame offsets: 
#        150
#        44476
#        80657
#        110939
#        152025
#        191888
#        233183
#        269295
#        295725
#
# Disc length: 4327 seconds
#
# Revision: 2
# Processed by: cddbd v1.5.2PL0 Copyright (c) Steve Scherf et al.
# Submitted via: ExactAudioCopy v0.95b4
#
DISCID=8510e509
DTITLE=Kempowski, Walter - Alles umsonst [CD4)
DYEAR=2006
DGENRE=Speech
TTITLE0=CD 4 - Track  1
TTITLE1=CD 4 - Track  2
TTITLE2=CD 4 - Track  3
TTITLE3=CD 4 - Track  4
TTITLE4=CD 4 - Track  5
TTITLE5=CD 4 - Track  6
TTITLE6=CD 4 - Track  7
TTITLE7=CD 4 - Track  8
TTITLE8=CD 4 - Track  9
EXTD=
EXTT0=
EXTT1=
EXTT2=
EXTT3=
EXTT4=
EXTT5=
EXTT6=
EXTT7=
EXTT8=
PLAYORDER=
